<?xml version="1.0" encoding="utf-8"?>
<!-- Generator: Adobe Illustrator 24.0.3, SVG Export Plug-In . SVG Version: 6.00 Build 0)  -->
<svg version="1.1" id="Layer_1" xmlns="http://www.w3.org/2000/svg" xmlns:xlink="http://www.w3.org/1999/xlink" x="0px" y="0px"
	 viewBox="0 0 252 144" style="enable-background:new 0 0 252 144;" xml:space="preserve">
<style type="text/css">
	.st0{fill:none;stroke:#FFFFFF;}
	.st1{enable-background:new    ;}
	.st2{fill:#FFFFFF;}
</style>
<g id="Layer_2_1_">
</g>
<g id="Layer_2_2_">
</g>
<g id="Layer_2_3_">
</g>
<g id="Layer_2_4_">
</g>
<g id="Layer_2_5_">
</g>
<g id="Layer_2_6_">
</g>
<line class="st0" x1="139.24" y1="44.44" x2="139.24" y2="92.05"/>
<g class="st1">
	<path class="st2" d="M62.46,91.55c-0.35-1.15-0.53-2.42-0.53-3.8c0-2.61,0.57-5.14,1.72-7.57c-0.04-4.47-0.25-9.24-0.63-14.33
		c-3.23,0.34-6.84,0.65-10.81,0.93c-0.8,3.41-1.59,6.87-2.37,10.38l-1.39,6.13c-0.27,0.76-0.67,1.14-1.2,1.14
		c-0.49,0-0.74-0.31-0.74-0.93c0-0.18,0.03-0.4,0.08-0.65l1.39-6.13c0.74-3.29,1.5-6.56,2.26-9.83c-1.24,0.07-2.22,0.12-2.94,0.14
		c-0.6,0-0.9-0.3-0.9-0.9c0-0.67,0.28-1.01,0.84-1.01l3.46-0.19c1.96-8.21,3.73-14.02,5.31-17.43c1.05-2.32,2.13-3.49,3.24-3.49
		s2.04,1.16,2.81,3.49c1.23,4.21,2.12,9.62,2.67,16.21c0.76-0.11,1.33-0.22,1.72-0.33l0.25-0.03c0.22,0,0.41,0.09,0.59,0.27
		c0.17,0.18,0.26,0.42,0.26,0.71c0,0.34-0.19,0.64-0.57,0.9c-0.47,0.13-1.16,0.25-2.07,0.38c0.29,3.96,0.48,7.78,0.57,11.47
		c0.58-0.83,1.15-1.61,1.72-2.31c0.71-0.93,1.31-1.78,1.81-2.55c0.5-0.77,0.75-1.49,0.75-2.17c0-0.54,0.15-0.82,0.44-0.82
		c0.09,0,0.18,0.05,0.27,0.14c0.16,0.13,0.25,0.35,0.25,0.68c0,0.82-0.27,1.66-0.8,2.52c-0.54,0.86-1.2,1.8-2,2.81
		c-0.8,1.01-1.6,2.14-2.4,3.39l0.03,2.83c0,2.14-0.04,3.72-0.11,4.74l-0.3,4.38c-0.35,1.71-0.78,2.56-1.31,2.56
		C63.26,93.28,62.81,92.7,62.46,91.55z M62.85,63.94c-0.53-6.46-1.39-11.76-2.59-15.88c-0.45-1.42-0.79-2.12-1.01-2.12H59.2
		c-0.91,0.42-1.92,2.39-3.04,5.91c-1.12,3.52-2.28,7.84-3.5,12.97C56.21,64.6,59.6,64.31,62.85,63.94z M63.64,82.79
		c-0.4,1.2-0.6,2.51-0.6,3.92c0,0.96,0.09,1.97,0.27,3.02C63.46,88.41,63.57,86.1,63.64,82.79z"/>
	<path class="st2" d="M75.63,74.95c-0.44-1.05-0.71-2.19-0.82-3.41c-0.67,0.22-1.34,0.33-2.02,0.33c-0.51,0-1.01-0.06-1.5-0.19
		c-1.16-0.33-2.03-1.2-2.61-2.62c-0.24-0.71-0.35-1.39-0.35-2.04l0.03-0.65c0.38-1.45,0.79-2.18,1.23-2.18
		c0.51,0,0.97,0.69,1.39,2.07c0.36,1.2,0.54,2.4,0.54,3.6c0.67,0.25,1.39,0.38,2.15,0.38c0.36,0,0.73-0.04,1.09-0.11l-0.05-0.52
		c0.09-2.25,0.68-3.38,1.77-3.38c0.18,0,0.36,0.05,0.54,0.14c0.56,0.29,0.84,0.83,0.84,1.61c0,0.47-0.17,1.04-0.52,1.69l-0.08,0.11
		c-0.07,0.2-0.28,0.47-0.63,0.82c0.09,1.49,0.33,2.67,0.71,3.53s0.69,1.32,0.93,1.36c0.24,0.04,0.38,0.07,0.44,0.07
		c0.4,0,0.8-0.39,1.2-1.17c0.45-0.91,0.82-2.38,1.09-4.41c0.07-0.22,0.22-0.33,0.44-0.33c0.33,0,0.49,0.15,0.49,0.44
		c-0.27,2.14-0.66,3.71-1.17,4.71c-0.69,1.34-1.3,2.05-1.84,2.11c-0.54,0.06-0.85,0.1-0.94,0.1C77.08,76.99,76.3,76.31,75.63,74.95z
		 M69.8,66.26c-0.04,0.18-0.05,0.43-0.05,0.74c0,0.94,0.25,1.69,0.76,2.23C70.51,67.96,70.27,66.97,69.8,66.26z"/>
</g>
<g class="st1">
	<path class="st2" d="M86,74.95c-0.44-1.05-0.71-2.19-0.82-3.41c-0.67,0.22-1.34,0.33-2.02,0.33c-0.51,0-1.01-0.06-1.5-0.19
		c-1.16-0.33-2.03-1.2-2.61-2.62c-0.24-0.71-0.35-1.39-0.35-2.04l0.03-0.65c0.38-1.45,0.79-2.18,1.23-2.18
		c0.51,0,0.97,0.69,1.39,2.07c0.36,1.2,0.54,2.4,0.54,3.6c0.67,0.25,1.39,0.38,2.15,0.38c0.36,0,0.73-0.04,1.09-0.11l-0.05-0.52
		c0.09-2.25,0.68-3.38,1.77-3.38c0.18,0,0.36,0.05,0.54,0.14c0.56,0.29,0.84,0.83,0.84,1.61c0,0.47-0.17,1.04-0.52,1.69l-0.08,0.11
		c-0.07,0.2-0.28,0.47-0.63,0.82c0.09,1.49,0.33,2.67,0.71,3.53s0.69,1.32,0.93,1.36c0.24,0.04,0.38,0.07,0.44,0.07
		c0.4,0,0.8-0.39,1.2-1.17c0.45-0.91,0.82-2.38,1.09-4.41c0.07-0.22,0.22-0.33,0.44-0.33c0.33,0,0.49,0.15,0.49,0.44
		c-0.27,2.14-0.66,3.71-1.17,4.71c-0.69,1.34-1.3,2.05-1.84,2.11c-0.54,0.06-0.85,0.1-0.94,0.1C87.46,76.99,86.68,76.31,86,74.95z
		 M80.17,66.26c-0.04,0.18-0.05,0.43-0.05,0.74c0,0.94,0.25,1.69,0.76,2.23C80.88,67.96,80.65,66.97,80.17,66.26z"/>
</g>
<g class="st1">
	<path class="st2" d="M91.07,71.93c-0.27-0.78-0.41-1.79-0.41-3.02c0-0.62,0.04-1.07,0.14-1.36c0.22-0.65,0.52-0.98,0.9-0.98
		c0.85,0,1.28,0.86,1.28,2.59l-0.03,0.84c0,1.98,0.25,3.42,0.74,4.32c0.49,0.9,0.99,1.35,1.5,1.35c0.87,0,1.53-0.98,1.96-2.94
		c-0.47-1.09-0.71-2.22-0.71-3.41c0-1.2,0.23-1.8,0.68-1.8c0.51,0,0.84,0.38,1.01,1.14v0.05c0.05,0.13,0.1,0.55,0.14,1.28
		c0.25,1.14,0.55,1.99,0.9,2.53c0.47,0.76,1.08,1.14,1.82,1.14c0.64,0,1.11-0.32,1.42-0.95c0.31-0.71,0.46-1.6,0.46-2.67
		c0-0.22,0.16-0.33,0.49-0.33c0.31,0,0.46,0.11,0.46,0.33c0,1.2-0.2,2.23-0.59,3.11c-0.39,0.87-0.88,1.46-1.47,1.77
		c-0.59,0.31-1.07,0.46-1.43,0.46c-1,0-1.84-0.5-2.53-1.5c-0.73,2.05-1.91,3.08-3.54,3.08C92.32,76.96,91.25,75.29,91.07,71.93z"/>
</g>
<g class="st1">
	<path class="st2" d="M109.78,75.77c-0.42-0.82-0.81-2.22-1.17-4.2l-0.03-0.27c-1.11,2.45-2.35,3.74-3.73,3.87
		c-0.53,0-0.99-0.15-1.39-0.44c-0.4-0.29-0.71-0.67-0.94-1.14c-0.23-0.47-0.34-0.99-0.34-1.55c0-0.76,0.23-1.59,0.68-2.48
		c1.04-1.8,2.29-2.7,3.76-2.7c0.4,0,0.81,0.07,1.23,0.22c-0.84-4.98-1.25-9.08-1.25-12.31c0-2.6,0.29-4.61,0.87-6.05
		c0.58-1.43,1.22-2.18,1.91-2.23c0.6,0,1.04,0.69,1.33,2.07l0.03,0.05c0.33,1.43,0.49,3.39,0.49,5.86c0,1.05-0.03,2.2-0.08,3.43
		c-0.24,4.03-0.66,7.25-1.28,9.64c0.64,3.96,1.17,6.39,1.61,7.3c0.24,0.45,0.49,0.68,0.76,0.68c0.38,0,0.82-0.5,1.31-1.51
		s0.77-2.33,0.84-3.96c0.07-0.2,0.25-0.3,0.52-0.3c0.24,0,0.38,0.09,0.44,0.27c-0.15,2.76-0.9,4.83-2.26,6.21
		c-0.54,0.56-0.97,0.85-1.28,0.87l-0.46,0.03C110.77,77.13,110.25,76.67,109.78,75.77z M106.83,72.46c0.54-0.61,1.02-1.55,1.46-2.82
		c-0.09-0.45-0.17-0.92-0.25-1.39c-0.27-0.14-0.54-0.22-0.82-0.22c-0.4,0-0.79,0.15-1.17,0.46c-0.65,0.51-1.17,1.15-1.55,1.93
		c-0.27,0.56-0.41,1.06-0.41,1.5c0,0.54,0.17,0.94,0.52,1.2c0.24,0.16,0.47,0.25,0.71,0.25C105.79,73.37,106.29,73.07,106.83,72.46z
		 M110.3,54.68c0-2.47-0.16-4.39-0.49-5.77c-0.05-0.2-0.11-0.3-0.16-0.3c-0.09,0-0.17,0.08-0.25,0.25
		c-0.15,0.29-0.22,0.46-0.22,0.52c-0.42,1.04-0.64,2.04-0.67,3.01s-0.04,1.6-0.04,1.89c0,3.01,0.33,6.59,0.98,10.73
		C110.02,61.85,110.3,58.41,110.3,54.68z"/>
	<path class="st2" d="M120.3,76.56c-0.62-0.98-1.05-2.64-1.31-4.98c-1.18,2.09-2.36,3.4-3.54,3.92c-0.35,0.13-0.64,0.19-0.87,0.19
		c-0.74,0-1.12-0.63-1.12-1.88c0-0.31,0.03-0.63,0.08-0.98c0.15-0.93,0.34-1.71,0.57-2.34c0.29-0.8,0.77-1.68,1.43-2.66
		c0.66-0.97,1.24-1.55,1.73-1.74s0.83-0.29,1.01-0.29c0.64,0,1.26,0.47,1.88,1.42c0.11,0.22,0.16,0.39,0.16,0.52
		c0,0.22-0.12,0.33-0.35,0.33c-0.27,0-0.49-0.12-0.65-0.37c-0.16-0.25-0.35-0.37-0.57-0.37c-0.53,0-1.17,0.65-1.93,1.96
		c-0.45,0.78-0.81,1.54-1.06,2.26c-0.25,0.73-0.38,1.27-0.38,1.63c0,0.31,0.07,0.46,0.22,0.46c0.16,0,0.39-0.13,0.68-0.38
		c0.89-0.8,1.61-1.92,2.15-3.35c0.45-1.09,0.87-1.63,1.25-1.63c0.11,0,0.22,0.03,0.33,0.08c0.31,0.15,0.51,0.42,0.61,0.82
		c0.1,0.4,0.17,0.9,0.2,1.5c0.24,2.78,0.55,4.33,0.95,4.67c0.4,0.34,0.69,0.5,0.87,0.5c0.4,0,0.8-0.35,1.2-1.06
		c0.56-1.03,0.92-2.49,1.06-4.36c0.04-0.51,0.21-0.76,0.52-0.76c0.29,0,0.44,0.24,0.44,0.71c-0.13,2.47-0.65,4.48-1.58,6.02
		c-0.62,0.91-1.12,1.38-1.51,1.43c-0.39,0.05-0.62,0.07-0.69,0.07C121.43,77.89,120.84,77.45,120.3,76.56z"/>
</g>
<g class="st1">
	<path class="st2" d="M80.36,87.1l-0.65-1.62h-2.64l-0.59,1.62h-0.7l2.26-5.79h0.65l2.33,5.79H80.36z M77.28,84.95h2.21l-1.14-2.81
		L77.28,84.95z"/>
	<path class="st2" d="M84.29,83.05v0.53c-0.13-0.06-0.27-0.09-0.43-0.09c-0.27,0-0.52,0.07-0.75,0.2c-0.23,0.14-0.42,0.33-0.56,0.59
		c-0.14,0.26-0.21,0.56-0.21,0.91v1.9h-0.63v-3.97h0.63v0.8c0.17-0.29,0.38-0.52,0.64-0.69s0.55-0.25,0.87-0.25
		C84.01,82.99,84.15,83.01,84.29,83.05z"/>
	<path class="st2" d="M85.11,87.1v-3.45h-0.75v-0.53h0.75v-1.32h0.63v1.32h1.01v0.53h-1.01v3.45H85.11z"/>
	<path class="st2" d="M87.75,82.22c-0.1-0.09-0.14-0.2-0.14-0.33c0-0.12,0.05-0.23,0.14-0.32c0.1-0.09,0.22-0.13,0.36-0.13
		c0.14,0,0.25,0.04,0.35,0.13s0.15,0.2,0.15,0.33c0,0.12-0.05,0.23-0.15,0.32c-0.1,0.09-0.22,0.14-0.35,0.14
		C87.96,82.36,87.84,82.31,87.75,82.22z M87.79,87.1v-3.97h0.64v3.97H87.79z"/>
	<path class="st2" d="M90.37,86.99c-0.32-0.16-0.56-0.4-0.73-0.7l0.57-0.25c0.23,0.45,0.68,0.67,1.35,0.67
		c0.32,0,0.59-0.05,0.8-0.16c0.21-0.11,0.32-0.27,0.32-0.5c0-0.23-0.09-0.4-0.26-0.52s-0.47-0.19-0.9-0.22
		c-0.6-0.05-1.03-0.17-1.28-0.37s-0.39-0.46-0.39-0.79c0-0.37,0.15-0.65,0.44-0.86c0.29-0.2,0.69-0.3,1.2-0.3
		c0.87,0,1.45,0.31,1.77,0.93l-0.57,0.25c-0.11-0.23-0.26-0.39-0.46-0.5c-0.2-0.11-0.46-0.16-0.78-0.16c-0.32,0-0.57,0.05-0.74,0.16
		c-0.17,0.11-0.26,0.26-0.26,0.46c0,0.19,0.09,0.34,0.28,0.45c0.18,0.12,0.5,0.19,0.95,0.22c0.55,0.05,0.97,0.17,1.24,0.37
		c0.27,0.2,0.41,0.47,0.41,0.79c0,0.27-0.08,0.49-0.25,0.68c-0.17,0.19-0.39,0.33-0.67,0.43c-0.28,0.1-0.58,0.14-0.91,0.14
		C91.06,87.24,90.69,87.15,90.37,86.99z"/>
	<path class="st2" d="M94.51,87.1v-3.45h-0.75v-0.53h0.75v-1.32h0.63v1.32h1.01v0.53h-1.01v3.45H94.51z"/>
</g>
</svg>
