<?xml version="1.0" encoding="utf-8"?>
<!-- Generator: Adobe Illustrator 24.0.3, SVG Export Plug-In . SVG Version: 6.00 Build 0)  -->
<svg version="1.1" xmlns="http://www.w3.org/2000/svg" xmlns:xlink="http://www.w3.org/1999/xlink" x="0px" y="0px"
	 viewBox="0 0 252 144" style="enable-background:new 0 0 252 144;" xml:space="preserve">
<style type="text/css">
	.st0{enable-background:new    ;}
	.st1{fill:#FFFFFF;}
</style>
<g id="Layer_2">
</g>
<g id="Layer_1">
	<g id="Layer_2_1_">
	</g>
	<g class="st0">
		<path class="st1" d="M93.85,100.93c-0.48-1.55-0.71-3.25-0.71-5.11c0-3.52,0.77-6.91,2.31-10.18c-0.05-6.01-0.33-12.43-0.84-19.26
			c-4.35,0.46-9.19,0.88-14.54,1.25c-1.07,4.59-2.14,9.24-3.19,13.95l-1.87,8.24c-0.37,1.03-0.9,1.54-1.61,1.54
			c-0.66,0-0.99-0.42-0.99-1.25c0-0.24,0.04-0.54,0.11-0.88l1.87-8.24c1-4.42,2.01-8.83,3.04-13.22c-1.66,0.1-2.98,0.16-3.96,0.18
			c-0.81,0-1.21-0.4-1.21-1.21c0-0.9,0.38-1.36,1.14-1.36l4.65-0.26c2.64-11.04,5.02-18.85,7.14-23.44
			c1.42-3.12,2.87-4.69,4.36-4.69c1.49,0,2.75,1.56,3.77,4.69c1.66,5.66,2.86,12.93,3.59,21.79c1.03-0.15,1.79-0.29,2.31-0.44
			l0.33-0.04c0.29,0,0.56,0.12,0.79,0.37c0.23,0.24,0.35,0.56,0.35,0.95c0,0.46-0.26,0.87-0.77,1.21c-0.64,0.17-1.56,0.34-2.78,0.51
			c0.39,5.32,0.65,10.46,0.77,15.42c0.78-1.12,1.55-2.16,2.31-3.11c0.95-1.25,1.76-2.39,2.44-3.42s1.01-2.01,1.01-2.91
			c0-0.73,0.2-1.1,0.59-1.1c0.12,0,0.24,0.06,0.37,0.18c0.22,0.17,0.33,0.48,0.33,0.92c0,1.1-0.36,2.23-1.08,3.39
			c-0.72,1.16-1.62,2.42-2.69,3.77c-1.07,1.35-2.15,2.87-3.22,4.56l0.04,3.81c0,2.88-0.05,5-0.15,6.37l-0.4,5.9
			c-0.46,2.29-1.05,3.44-1.76,3.44C94.93,103.25,94.33,102.48,93.85,100.93z M94.38,63.81c-0.71-8.69-1.87-15.81-3.48-21.35
			c-0.61-1.9-1.06-2.86-1.35-2.86h-0.07c-1.22,0.56-2.58,3.21-4.08,7.95c-1.5,4.74-3.07,10.55-4.71,17.43
			C85.45,64.69,90.01,64.3,94.38,63.81z M95.45,89.16c-0.54,1.61-0.81,3.37-0.81,5.27c0,1.29,0.12,2.65,0.37,4.06
			C95.2,96.71,95.35,93.6,95.45,89.16z"/>
		<path class="st1" d="M111.56,78.61c-0.59-1.42-0.95-2.94-1.1-4.58c-0.9,0.29-1.81,0.44-2.71,0.44c-0.68,0-1.35-0.08-2.01-0.26
			c-1.56-0.44-2.73-1.61-3.52-3.52c-0.32-0.95-0.48-1.87-0.48-2.75l0.04-0.88c0.51-1.95,1.06-2.93,1.65-2.93
			c0.68,0,1.31,0.93,1.87,2.78c0.49,1.61,0.73,3.22,0.73,4.83c0.9,0.34,1.87,0.51,2.89,0.51c0.49,0,0.98-0.05,1.46-0.15l-0.07-0.7
			c0.12-3.03,0.92-4.54,2.38-4.54c0.24,0,0.49,0.06,0.73,0.18c0.76,0.39,1.14,1.11,1.14,2.16c0,0.63-0.23,1.39-0.7,2.27l-0.11,0.15
			c-0.1,0.27-0.38,0.64-0.84,1.1c0.12,2,0.44,3.58,0.95,4.74s0.93,1.77,1.25,1.83c0.32,0.06,0.51,0.09,0.59,0.09
			c0.54,0,1.07-0.52,1.61-1.57c0.61-1.22,1.1-3.2,1.46-5.93c0.1-0.29,0.29-0.44,0.59-0.44c0.44,0,0.66,0.2,0.66,0.59
			c-0.37,2.88-0.89,4.99-1.57,6.33c-0.93,1.81-1.75,2.75-2.47,2.84c-0.72,0.09-1.14,0.13-1.26,0.13
			C113.51,81.36,112.46,80.44,111.56,78.61z M103.72,66.93c-0.05,0.24-0.07,0.57-0.07,0.99c0,1.27,0.34,2.27,1.03,3
			C104.68,69.21,104.36,67.88,103.72,66.93z"/>
		<path class="st1" d="M125.66,78.61c-0.59-1.42-0.95-2.94-1.1-4.58c-0.9,0.29-1.81,0.44-2.71,0.44c-0.68,0-1.35-0.08-2.01-0.26
			c-1.56-0.44-2.73-1.61-3.52-3.52c-0.32-0.95-0.48-1.87-0.48-2.75l0.04-0.88c0.51-1.95,1.06-2.93,1.65-2.93
			c0.68,0,1.31,0.93,1.87,2.78c0.49,1.61,0.73,3.22,0.73,4.83c0.9,0.34,1.87,0.51,2.89,0.51c0.49,0,0.98-0.05,1.46-0.15l-0.07-0.7
			c0.12-3.03,0.92-4.54,2.38-4.54c0.24,0,0.49,0.06,0.73,0.18c0.76,0.39,1.14,1.11,1.14,2.16c0,0.63-0.23,1.39-0.7,2.27l-0.11,0.15
			c-0.1,0.27-0.38,0.64-0.84,1.1c0.12,2,0.44,3.58,0.95,4.74s0.93,1.77,1.25,1.83s0.51,0.09,0.59,0.09c0.54,0,1.07-0.52,1.61-1.57
			c0.61-1.22,1.1-3.2,1.46-5.93c0.1-0.29,0.29-0.44,0.59-0.44c0.44,0,0.66,0.2,0.66,0.59c-0.37,2.88-0.89,4.99-1.57,6.33
			c-0.93,1.81-1.75,2.75-2.47,2.84c-0.72,0.09-1.14,0.13-1.26,0.13C127.61,81.36,126.56,80.44,125.66,78.61z M117.82,66.93
			c-0.05,0.24-0.07,0.57-0.07,0.99c0,1.27,0.34,2.27,1.03,3C118.77,69.21,118.46,67.88,117.82,66.93z"/>
		<path class="st1" d="M132.47,74.54c-0.37-1.05-0.55-2.4-0.55-4.07c0-0.83,0.06-1.44,0.18-1.83c0.29-0.88,0.7-1.32,1.21-1.32
			c1.15,0,1.72,1.16,1.72,3.48L135,71.94c0,2.66,0.33,4.6,0.99,5.8c0.66,1.21,1.33,1.81,2.01,1.81c1.17,0,2.05-1.32,2.64-3.96
			c-0.63-1.46-0.95-2.99-0.95-4.58c0-1.61,0.31-2.42,0.92-2.42c0.68,0,1.13,0.51,1.35,1.54v0.07c0.07,0.17,0.13,0.75,0.18,1.72
			c0.34,1.54,0.74,2.67,1.21,3.41c0.63,1.03,1.45,1.54,2.45,1.54c0.85,0,1.49-0.43,1.9-1.28c0.42-0.95,0.62-2.15,0.62-3.59
			c0-0.29,0.22-0.44,0.66-0.44c0.42,0,0.62,0.15,0.62,0.44c0,1.61-0.26,3-0.79,4.17c-0.52,1.17-1.18,1.97-1.98,2.38
			c-0.79,0.42-1.43,0.62-1.92,0.62c-1.34,0-2.48-0.67-3.41-2.01c-0.98,2.76-2.56,4.14-4.76,4.14
			C134.14,81.32,132.71,79.06,132.47,74.54z"/>
		<path class="st1" d="M157.7,79.71c-0.56-1.1-1.09-2.98-1.57-5.64l-0.04-0.37c-1.49,3.3-3.16,5.03-5.02,5.2
			c-0.71,0-1.33-0.2-1.87-0.59s-0.96-0.9-1.26-1.54c-0.3-0.63-0.46-1.33-0.46-2.09c0-1.03,0.3-2.14,0.92-3.33
			c1.39-2.42,3.08-3.62,5.05-3.62c0.54,0,1.09,0.1,1.65,0.29c-1.12-6.69-1.68-12.21-1.68-16.55c0-3.49,0.39-6.2,1.17-8.13
			c0.78-1.93,1.63-2.93,2.56-3c0.81,0,1.4,0.93,1.79,2.78l0.04,0.07c0.44,1.93,0.66,4.55,0.66,7.87c0,1.42-0.04,2.95-0.11,4.61
			c-0.32,5.42-0.89,9.74-1.72,12.96c0.85,5.32,1.57,8.59,2.16,9.81c0.32,0.61,0.66,0.92,1.03,0.92c0.51,0,1.1-0.68,1.76-2.03
			c0.66-1.36,1.04-3.13,1.14-5.33c0.1-0.27,0.33-0.4,0.7-0.4c0.32,0,0.51,0.12,0.59,0.37c-0.2,3.71-1.21,6.49-3.04,8.35
			c-0.73,0.76-1.31,1.15-1.72,1.17l-0.62,0.04C159.03,81.54,158.34,80.93,157.7,79.71z M153.73,75.26c0.72-0.82,1.37-2.08,1.96-3.79
			c-0.12-0.61-0.23-1.23-0.33-1.87c-0.37-0.19-0.73-0.29-1.1-0.29c-0.54,0-1.06,0.21-1.57,0.62c-0.88,0.68-1.58,1.55-2.09,2.6
			c-0.37,0.76-0.55,1.43-0.55,2.01c0,0.73,0.23,1.27,0.7,1.61c0.32,0.22,0.63,0.33,0.95,0.33
			C152.33,76.48,153.01,76.08,153.73,75.26z M158.4,51.36c0-3.32-0.22-5.91-0.66-7.76c-0.07-0.27-0.15-0.4-0.22-0.4
			c-0.12,0-0.23,0.11-0.33,0.33c-0.2,0.39-0.29,0.62-0.29,0.7c-0.56,1.39-0.86,2.74-0.9,4.05c-0.04,1.31-0.05,2.15-0.05,2.54
			c0,4.05,0.44,8.86,1.32,14.43C158.02,60.99,158.4,56.37,158.4,51.36z"/>
		<path class="st1" d="M171.84,80.77c-0.83-1.32-1.42-3.55-1.76-6.7c-1.59,2.81-3.17,4.57-4.76,5.27c-0.46,0.17-0.85,0.26-1.17,0.26
			c-1,0-1.5-0.84-1.5-2.53c0-0.41,0.04-0.85,0.11-1.32c0.2-1.24,0.45-2.29,0.77-3.15c0.39-1.07,1.03-2.26,1.92-3.57
			c0.89-1.31,1.67-2.09,2.33-2.34c0.66-0.26,1.11-0.38,1.35-0.38c0.85,0,1.7,0.63,2.53,1.9c0.15,0.29,0.22,0.52,0.22,0.7
			c0,0.29-0.16,0.44-0.48,0.44c-0.37,0-0.66-0.17-0.88-0.49c-0.22-0.33-0.48-0.49-0.77-0.49c-0.71,0-1.58,0.88-2.6,2.64
			c-0.61,1.05-1.09,2.06-1.43,3.04c-0.34,0.98-0.51,1.71-0.51,2.2c0,0.42,0.1,0.62,0.29,0.62c0.22,0,0.52-0.17,0.92-0.51
			c1.2-1.07,2.16-2.58,2.89-4.5c0.61-1.46,1.17-2.2,1.68-2.2c0.15,0,0.29,0.04,0.44,0.11c0.42,0.2,0.69,0.56,0.82,1.1
			c0.13,0.54,0.23,1.21,0.28,2.01c0.32,3.74,0.74,5.83,1.28,6.28c0.54,0.45,0.93,0.68,1.17,0.68c0.54,0,1.07-0.48,1.61-1.43
			c0.76-1.39,1.23-3.34,1.43-5.86c0.05-0.68,0.28-1.03,0.7-1.03c0.39,0,0.59,0.32,0.59,0.95c-0.17,3.32-0.88,6.02-2.12,8.09
			c-0.83,1.22-1.51,1.86-2.03,1.92c-0.53,0.06-0.84,0.09-0.93,0.09C173.36,82.56,172.57,81.97,171.84,80.77z"/>
	</g>
	<g class="st0">
		<path class="st1" d="M119.51,94.12l-0.92-2.29h-3.74l-0.83,2.29h-0.99l3.19-8.18h0.92l3.29,8.18H119.51z M115.15,91.09h3.13
			l-1.61-3.97L115.15,91.09z"/>
		<path class="st1" d="M125.06,88.4v0.74c-0.18-0.08-0.39-0.12-0.61-0.12c-0.38,0-0.73,0.1-1.06,0.29
			c-0.33,0.19-0.59,0.47-0.79,0.83c-0.2,0.36-0.3,0.79-0.3,1.29v2.69h-0.9v-5.62h0.9v1.13c0.24-0.42,0.54-0.74,0.9-0.97
			s0.78-0.35,1.23-0.35C124.67,88.31,124.87,88.34,125.06,88.4z"/>
		<path class="st1" d="M126.22,94.12v-4.87h-1.06v-0.74h1.06v-1.86h0.9v1.86h1.43v0.74h-1.43v4.87H126.22z"/>
		<path class="st1" d="M129.95,87.22c-0.14-0.13-0.21-0.29-0.21-0.47c0-0.18,0.07-0.33,0.21-0.45c0.14-0.12,0.31-0.19,0.51-0.19
			c0.19,0,0.36,0.06,0.5,0.19c0.14,0.12,0.21,0.28,0.21,0.46c0,0.18-0.07,0.33-0.21,0.46c-0.14,0.13-0.31,0.19-0.5,0.19
			C130.26,87.41,130.09,87.35,129.95,87.22z M130.01,94.12v-5.62h0.9v5.62H130.01z"/>
		<path class="st1" d="M133.66,93.97c-0.45-0.23-0.8-0.56-1.04-0.98l0.81-0.36c0.33,0.63,0.96,0.95,1.91,0.95
			c0.46,0,0.84-0.08,1.14-0.23c0.3-0.15,0.45-0.39,0.45-0.71c0-0.33-0.12-0.57-0.36-0.73c-0.24-0.16-0.67-0.26-1.27-0.31
			c-0.84-0.06-1.45-0.24-1.82-0.52c-0.37-0.28-0.55-0.65-0.55-1.12c0-0.52,0.21-0.92,0.62-1.21c0.41-0.29,0.98-0.43,1.7-0.43
			c1.22,0,2.05,0.44,2.5,1.32l-0.81,0.36c-0.15-0.32-0.37-0.56-0.65-0.71c-0.29-0.15-0.65-0.23-1.1-0.23
			c-0.46,0-0.81,0.08-1.05,0.23s-0.36,0.37-0.36,0.65c0,0.26,0.13,0.48,0.39,0.64c0.26,0.16,0.71,0.27,1.34,0.32
			c0.78,0.06,1.37,0.24,1.75,0.52c0.38,0.28,0.57,0.66,0.57,1.12c0,0.38-0.12,0.7-0.36,0.97s-0.55,0.47-0.95,0.61
			c-0.4,0.14-0.82,0.21-1.28,0.21C134.64,94.31,134.12,94.2,133.66,93.97z"/>
		<path class="st1" d="M139.52,94.12v-4.87h-1.06v-0.74h1.06v-1.86h0.9v1.86h1.43v0.74h-1.43v4.87H139.52z"/>
	</g>
</g>
</svg>
